<?xml version="1.0" encoding="utf-8"?>
<!-- Generator: Adobe Illustrator 24.0.2, SVG Export Plug-In . SVG Version: 6.00 Build 0)  -->
<svg version="1.1" id="Calque_1" xmlns="http://www.w3.org/2000/svg" xmlns:xlink="http://www.w3.org/1999/xlink" x="0px" y="0px"
	 viewBox="0 0 623.1 80.7" style="enable-background:new 0 0 623.1 80.7;" xml:space="preserve">
<style type="text/css">
	.st0{clip-path:url(#SVGID_2_);}
	.st1{clip-path:url(#SVGID_4_);}
	.st2{clip-path:url(#SVGID_6_);}
	.st3{clip-path:url(#SVGID_8_);}
	.st4{clip-path:url(#SVGID_10_);}
	.st5{clip-path:url(#SVGID_12_);}
	.st6{clip-path:url(#SVGID_14_);}
	.st7{clip-path:url(#SVGID_16_);}
	.st8{clip-path:url(#SVGID_18_);}
	.st9{clip-path:url(#SVGID_20_);}
	.st10{clip-path:url(#SVGID_22_);}
	.st11{clip-path:url(#SVGID_24_);}
	.st12{clip-path:url(#SVGID_26_);}
	.st13{clip-path:url(#SVGID_28_);}
</style>
<g>
	<g>
		<g>
			<defs>
				<rect id="SVGID_1_" x="-49.8" y="-27.3" width="725.5" height="135"/>
			</defs>
			<clipPath id="SVGID_2_">
				<use xlink:href="#SVGID_1_"  style="overflow:visible;"/>
			</clipPath>
			<g class="st0">
				<g>
					<defs>
						<rect id="SVGID_3_" x="-49.8" y="-27.3" width="725.5" height="135"/>
					</defs>
					<clipPath id="SVGID_4_">
						<use xlink:href="#SVGID_3_"  style="overflow:visible;"/>
					</clipPath>
					<path class="st1" d="M27.6,40.2c-0.8,1.6-1.8,2.9-3.1,4c-1.3,1.1-2.9,1.9-4.7,2.4s-3.7,0.8-5.7,0.8H8v10.9H0V22h14.8
						c2.2,0,4.1,0.3,5.8,0.9s3.2,1.5,4.3,2.6c1.2,1.1,2.1,2.4,2.8,4c0.6,1.5,1,3.2,1,5.1v0.1C28.7,36.8,28.4,38.7,27.6,40.2
						 M20.7,34.8c0-1.8-0.6-3.2-1.7-4.1c-1.2-0.9-2.7-1.4-4.7-1.4H8v11.1h6.3c2,0,3.6-0.5,4.7-1.6c1.1-1,1.7-2.4,1.7-3.9L20.7,34.8
						L20.7,34.8z"/>
				</g>
				<g>
					<defs>
						<rect id="SVGID_5_" x="-49.8" y="-27.3" width="725.5" height="135"/>
					</defs>
					<clipPath id="SVGID_6_">
						<use xlink:href="#SVGID_5_"  style="overflow:visible;"/>
					</clipPath>
					<path class="st2" d="M67.1,58.3l-7.8-11.6H53v11.6h-8V22h16.6c4.3,0,7.7,1,10.1,3.2c2.4,2.1,3.6,5,3.6,8.8v0.1
						c0,2.9-0.7,5.3-2.1,7.2c-1.4,1.8-3.3,3.2-5.6,4.1l8.9,13L67.1,58.3L67.1,58.3z M67.2,34.4c0-1.7-0.6-3-1.7-3.9
						c-1.1-0.9-2.6-1.3-4.6-1.3H53v10.4h8.1c2,0,3.5-0.5,4.5-1.4s1.6-2.2,1.6-3.7L67.2,34.4L67.2,34.4z"/>
				</g>
				<g>
					<defs>
						<rect id="SVGID_7_" x="-49.8" y="-27.3" width="725.5" height="135"/>
					</defs>
					<clipPath id="SVGID_8_">
						<use xlink:href="#SVGID_7_"  style="overflow:visible;"/>
					</clipPath>
					<path class="st3" d="M128.4,47.5c-1,2.3-2.3,4.2-4,6s-3.8,3.1-6.1,4s-4.9,1.5-7.8,1.5s-5.4-0.5-7.7-1.5c-2.4-1-4.4-2.3-6.1-4
						c-1.7-1.7-3-3.6-4-5.9c-0.9-2.3-1.4-4.7-1.4-7.3v-0.1c0-2.6,0.5-5,1.4-7.3s2.3-4.2,4-6s3.8-3.1,6.1-4s4.9-1.5,7.8-1.5
						s5.4,0.5,7.7,1.5c2.4,1,4.4,2.3,6.1,4c1.7,1.7,3,3.6,4,5.9c1,2.3,1.4,4.7,1.4,7.3v0.1C129.9,42.8,129.4,45.2,128.4,47.5
						 M121.5,40.2c0-1.5-0.3-3-0.8-4.4c-0.5-1.4-1.3-2.6-2.3-3.6c-1-1-2.1-1.9-3.5-2.5c-1.4-0.6-2.8-0.9-4.4-0.9
						c-1.6,0-3.1,0.3-4.4,0.9c-1.3,0.6-2.5,1.4-3.4,2.4s-1.7,2.2-2.2,3.6c-0.5,1.4-0.8,2.8-0.8,4.4v0.1c0,1.6,0.3,3,0.8,4.4
						c0.5,1.4,1.3,2.6,2.3,3.6c1,1,2.1,1.9,3.5,2.5c1.3,0.6,2.8,0.9,4.4,0.9c1.6,0,3.1-0.3,4.4-0.9c1.4-0.6,2.5-1.4,3.4-2.4
						c0.9-1,1.7-2.2,2.2-3.6C121.2,43.3,121.5,41.8,121.5,40.2L121.5,40.2L121.5,40.2z"/>
				</g>
				<g>
					<defs>
						<rect id="SVGID_9_" x="-49.8" y="-27.3" width="725.5" height="135"/>
					</defs>
					<clipPath id="SVGID_10_">
						<use xlink:href="#SVGID_9_"  style="overflow:visible;"/>
					</clipPath>
					<path class="st4" d="M167.5,51.5c-0.6,1.6-1.5,3-2.6,4.1c-1.1,1.1-2.5,1.9-4.1,2.4c-1.6,0.5-3.3,0.8-5.2,0.8
						c-2.8,0-5.2-0.5-7.1-1.6s-3.5-2.3-4.7-3.8l5-5.6c1,1.1,2.1,2,3.1,2.7c1,0.6,2.2,1,3.5,1c1.5,0,2.7-0.5,3.6-1.4
						c0.9-1,1.3-2.5,1.3-4.6V22h8.2v23.8C168.4,48,168.1,49.9,167.5,51.5"/>
				</g>
				<g>
					<defs>
						<rect id="SVGID_11_" x="-49.8" y="-27.3" width="725.5" height="135"/>
					</defs>
					<clipPath id="SVGID_12_">
						<use xlink:href="#SVGID_11_"  style="overflow:visible;"/>
					</clipPath>
					<polygon class="st5" points="186.9,58.3 186.9,22 214.3,22 214.3,29.1 194.8,29.1 194.8,36.5 211.9,36.5 211.9,43.6 
						194.8,43.6 194.8,51.2 214.5,51.2 214.5,58.3 					"/>
				</g>
				<g>
					<defs>
						<rect id="SVGID_13_" x="-49.8" y="-27.3" width="725.5" height="135"/>
					</defs>
					<clipPath id="SVGID_14_">
						<use xlink:href="#SVGID_13_"  style="overflow:visible;"/>
					</clipPath>
					<path class="st6" d="M261,55.2c-1,0.8-2.1,1.5-3.3,2s-2.5,1-3.9,1.3c-1.4,0.3-3,0.4-4.8,0.4c-2.7,0-5.1-0.5-7.4-1.5
						s-4.2-2.3-5.9-4s-3-3.7-3.9-5.9c-0.9-2.3-1.4-4.7-1.4-7.3v-0.1c0-2.6,0.5-5,1.4-7.3c0.9-2.3,2.2-4.2,3.9-6s3.6-3.1,6-4
						c2.3-1,4.9-1.5,7.7-1.5c1.7,0,3.2,0.1,4.6,0.4c1.4,0.3,2.7,0.7,3.8,1.1c1.1,0.5,2.2,1.1,3.2,1.8s1.9,1.5,2.7,2.3l-5.1,5.9
						c-1.4-1.3-2.9-2.3-4.3-3c-1.5-0.7-3.1-1.1-5-1.1c-1.5,0-2.9,0.3-4.2,0.9c-1.3,0.6-2.4,1.4-3.3,2.4c-0.9,1-1.7,2.2-2.2,3.6
						c-0.5,1.4-0.8,2.8-0.8,4.4v0.1c0,1.6,0.3,3,0.8,4.4s1.2,2.6,2.1,3.6c0.9,1,2,1.9,3.3,2.5c1.3,0.6,2.7,0.9,4.3,0.9
						c2.1,0,3.8-0.4,5.3-1.1c1.4-0.8,2.9-1.8,4.3-3.1l5.1,5.1C263,53.5,262,54.4,261,55.2"/>
				</g>
				<g>
					<defs>
						<rect id="SVGID_15_" x="-49.8" y="-27.3" width="725.5" height="135"/>
					</defs>
					<clipPath id="SVGID_16_">
						<use xlink:href="#SVGID_15_"  style="overflow:visible;"/>
					</clipPath>
					<polygon class="st7" points="297.1,29.4 297.1,58.3 289.1,58.3 289.1,29.4 278.1,29.4 278.1,22 308.2,22 308.2,29.4 					"/>
				</g>
				<g>
					<defs>
						<rect id="SVGID_17_" x="-49.8" y="-27.3" width="725.5" height="135"/>
					</defs>
					<clipPath id="SVGID_18_">
						<use xlink:href="#SVGID_17_"  style="overflow:visible;"/>
					</clipPath>
					<polygon class="st8" points="373.2,58.3 365.1,45.9 356.9,58.3 347.8,58.3 360.5,39.9 348.3,22 357.7,22 365.3,33.8 373,22 
						382,22 369.9,39.8 382.6,58.3 					"/>
				</g>
				<g>
					<defs>
						<rect id="SVGID_19_" x="-49.8" y="-27.3" width="725.5" height="135"/>
					</defs>
					<clipPath id="SVGID_20_">
						<use xlink:href="#SVGID_19_"  style="overflow:visible;"/>
					</clipPath>
					<path class="st9" d="M452.4,40.2c-0.8,1.6-1.8,2.9-3.1,4c-1.3,1.1-2.9,1.9-4.7,2.4c-1.8,0.5-3.7,0.8-5.7,0.8h-6.1v10.9h-8V22
						h14.8c2.2,0,4.1,0.3,5.8,0.9s3.2,1.5,4.3,2.6c1.2,1.1,2.1,2.4,2.8,4c0.6,1.5,1,3.2,1,5.1v0.1C453.5,36.8,453.2,38.7,452.4,40.2
						 M445.4,34.8c0-1.8-0.6-3.2-1.7-4.1c-1.2-0.9-2.7-1.4-4.7-1.4h-6.2v11.1h6.3c2,0,3.6-0.5,4.7-1.6c1.1-1,1.7-2.4,1.7-3.9
						L445.4,34.8L445.4,34.8z"/>
				</g>
				<g>
					<defs>
						<rect id="SVGID_21_" x="-49.8" y="-27.3" width="725.5" height="135"/>
					</defs>
					<clipPath id="SVGID_22_">
						<use xlink:href="#SVGID_21_"  style="overflow:visible;"/>
					</clipPath>
					<path class="st10" d="M496.8,58.3l-3.3-8.1h-15.3l-3.3,8.1h-8.1l15.6-36.5h7.4l15.5,36.5H496.8z M485.8,31.4L481,43.2h9.6
						L485.8,31.4z"/>
				</g>
				<g>
					<defs>
						<rect id="SVGID_23_" x="-49.8" y="-27.3" width="725.5" height="135"/>
					</defs>
					<clipPath id="SVGID_24_">
						<use xlink:href="#SVGID_23_"  style="overflow:visible;"/>
					</clipPath>
					<path class="st11" d="M543.2,58.3l-7.8-11.6h-6.3v11.6h-8V22h16.6c4.3,0,7.7,1,10.1,3.2c2.4,2.1,3.6,5,3.6,8.8v0.1
						c0,2.9-0.7,5.3-2.2,7.2c-1.4,1.8-3.3,3.2-5.6,4.1l8.9,13L543.2,58.3L543.2,58.3z M543.3,34.4c0-1.7-0.5-3-1.7-3.9
						c-1.1-0.9-2.6-1.3-4.6-1.3h-7.9v10.4h8.1c2,0,3.5-0.5,4.5-1.4c1-0.9,1.6-2.2,1.6-3.7L543.3,34.4L543.3,34.4z"/>
				</g>
				<g>
					<defs>
						<rect id="SVGID_25_" x="-49.8" y="-27.3" width="725.5" height="135"/>
					</defs>
					<clipPath id="SVGID_26_">
						<use xlink:href="#SVGID_25_"  style="overflow:visible;"/>
					</clipPath>
					<rect x="569.4" y="22" class="st12" width="8" height="36.3"/>
				</g>
				<g>
					<defs>
						<rect id="SVGID_27_" x="-49.8" y="-27.3" width="725.5" height="135"/>
					</defs>
					<clipPath id="SVGID_28_">
						<use xlink:href="#SVGID_27_"  style="overflow:visible;"/>
					</clipPath>
					<path class="st13" d="M622.1,52.4c-0.7,1.4-1.6,2.6-2.7,3.5c-1.2,1-2.6,1.7-4.2,2.2c-1.6,0.5-3.4,0.8-5.4,0.8
						c-2.8,0-5.5-0.5-8.1-1.4c-2.7-1-5.1-2.4-7.3-4.4l4.7-5.7c1.7,1.3,3.4,2.4,5.1,3.2c1.8,0.8,3.7,1.2,5.7,1.2c1.7,0,3-0.3,3.9-0.9
						c0.9-0.6,1.4-1.4,1.4-2.5v-0.1c0-0.5-0.1-1-0.3-1.4c-0.2-0.4-0.6-0.8-1.1-1.1c-0.5-0.3-1.3-0.7-2.2-1c-1-0.3-2.2-0.7-3.7-1.1
						c-1.8-0.5-3.5-1-5-1.5s-2.8-1.2-3.8-2c-1-0.8-1.8-1.8-2.4-3c-0.6-1.2-0.9-2.7-0.9-4.5v-0.1c0-1.7,0.3-3.2,0.9-4.5
						s1.5-2.5,2.6-3.5c1.1-1,2.5-1.7,4-2.2c1.5-0.5,3.3-0.8,5.1-0.8c2.7,0,5.1,0.4,7.3,1.2c2.2,0.8,4.3,1.9,6.1,3.4l-4.2,6
						c-1.6-1.1-3.2-2-4.8-2.6c-1.6-0.6-3.1-1-4.7-1c-1.5,0-2.7,0.3-3.5,0.9s-1.2,1.4-1.2,2.3v0.1c0,0.6,0.1,1.1,0.3,1.5
						c0.2,0.4,0.6,0.8,1.2,1.2c0.6,0.3,1.4,0.7,2.4,1c1,0.3,2.3,0.7,3.9,1.1c1.8,0.5,3.5,1,4.9,1.6c1.4,0.6,2.7,1.3,3.6,2.2
						s1.7,1.8,2.2,3s0.8,2.5,0.8,4.1v0.1C623,49.4,622.7,51,622.1,52.4"/>
				</g>
			</g>
		</g>
	</g>
</g>
</svg>
